<svg xmlns="http://www.w3.org/2000/svg" width="20" height="20" fill="none"><path fill="#011813" d="M14.45 4.55a1 1 0 1 0 0 2 1 1 0 0 0 0-2Zm3.833 2.017a6.323 6.323 0 0 0-.383-2.025 4.116 4.116 0 0 0-.967-1.475 3.918 3.918 0 0 0-1.475-.959 6.084 6.084 0 0 0-2.025-.391c-.883-.05-1.166-.05-3.433-.05s-2.55 0-3.434.05a6.083 6.083 0 0 0-2.024.391 3.983 3.983 0 0 0-1.475.959 3.917 3.917 0 0 0-.959 1.475 6.083 6.083 0 0 0-.392 2.025c-.05.883-.05 1.166-.05 3.433s0 2.55.05 3.433c.015.693.147 1.377.392 2.025.204.558.531 1.063.958 1.475.415.426.919.753 1.476.959a6.082 6.082 0 0 0 2.024.391c.884.05 1.167.05 3.434.05 2.267 0 2.55 0 3.433-.05a6.082 6.082 0 0 0 2.025-.391 3.918 3.918 0 0 0 1.475-.959c.427-.414.757-.918.967-1.475.238-.65.367-1.333.383-2.025 0-.883.05-1.166.05-3.433s0-2.55-.05-3.433Zm-1.5 6.766a4.675 4.675 0 0 1-.283 1.55 2.56 2.56 0 0 1-.625.959c-.27.275-.598.488-.959.625a4.675 4.675 0 0 1-1.55.283c-.833.042-1.141.05-3.333.05-2.191 0-2.5 0-3.333-.05a4.777 4.777 0 0 1-1.617-.25 2.727 2.727 0 0 1-.917-.625 2.5 2.5 0 0 1-.616-.958 4.616 4.616 0 0 1-.333-1.584c0-.833-.05-1.141-.05-3.333s0-2.5.05-3.333a4.608 4.608 0 0 1 .291-1.584 2.5 2.5 0 0 1 .659-.916c.253-.287.566-.514.916-.667a4.775 4.775 0 0 1 1.583-.283c.834 0 1.142-.05 3.334-.05 2.191 0 2.5 0 3.333.05a4.675 4.675 0 0 1 1.55.283c.379.14.719.369.992.667.273.256.486.569.625.916a4.7 4.7 0 0 1 .283 1.584c.042.833.05 1.141.05 3.333s-.008 2.5-.05 3.333ZM10 5.725A4.275 4.275 0 1 0 14.283 10 4.266 4.266 0 0 0 10 5.725Zm0 7.05a2.775 2.775 0 1 1 0-5.55 2.775 2.775 0 0 1 0 5.55Z"/></svg>