<svg xmlns="http://www.w3.org/2000/svg" width="175" height="40" fill="none"><rect width="40" height="40" fill="#009D77" rx="8"/><path fill="url(#a)" d="M27.332 19.244V30.42c0 .22-.18.4-.4.4H24.74c-.22 0-.4-.18-.4-.4v-3.308a.202.202 0 0 0-.304-.172l-3.844 2.22a.397.397 0 0 1-.4 0l-3.848-2.22a.2.2 0 0 0-.3.172v3.308c0 .22-.176.4-.396.4h-2.192c-.22 0-.4-.176-.4-.4V19.24c0-.152.168-.252.3-.172l2.492 1.44c.124.072.2.204.2.348v2.088c0 .144.076.276.2.348l3.956 2.276a.397.397 0 0 0 .4 0l3.936-2.272a.401.401 0 0 0 .2-.348v-2.092c0-.144.076-.276.2-.348l2.488-1.44a.2.2 0 0 1 .3.172l.004.004Z"/><path fill="#fff" d="m29.493 15.92-9.096 5.252a.795.795 0 0 1-.8 0L10.5 15.92a.8.8 0 0 1 0-1.384l9.096-5.252a.795.795 0 0 1 .8 0l9.096 5.252a.8.8 0 0 1 0 1.384Z"/><path fill="#011813" d="M50.004 29.644V10.54h3.08l7.517 11.72h-1.597l7.49-11.72h3.08v19.11h-4.242V17.714l.728.215-4.866 7.604H58.38l-4.866-7.604.728-.215v11.935H50l.004-.005Zm28.626.299c-1.37 0-2.598-.308-3.678-.918a6.954 6.954 0 0 1-2.567-2.49c-.632-1.046-.948-2.219-.948-3.52 0-1.3.312-2.433.935-3.465a6.805 6.805 0 0 1 2.554-2.447c1.08-.606 2.317-.905 3.703-.905 1.387 0 2.572.299 3.664.892 1.088.597 1.953 1.41 2.58 2.451.632 1.037.948 2.196.948 3.48 0 1.282-.316 2.494-.948 3.53a7.021 7.021 0 0 1-2.567 2.478c-1.079.615-2.308.918-3.677.918v-.004Zm0-3.787c.574 0 1.088-.127 1.54-.377a2.53 2.53 0 0 0 1.04-1.094c.24-.479.364-1.023.364-1.638 0-.616-.128-1.125-.378-1.582a2.798 2.798 0 0 0-1.04-1.08c-.443-.26-.952-.392-1.527-.392a3.03 3.03 0 0 0-1.54.392 2.728 2.728 0 0 0-1.053 1.098c-.25.47-.377.992-.377 1.568 0 .615.127 1.16.377 1.638.255.48.606.844 1.053 1.094.452.255.966.378 1.54.378v-.005Zm8.563 3.488V16.493h4.165v13.151h-4.165Zm8.702 0v-7.498c0-.668-.215-1.212-.65-1.639-.434-.426-.974-.636-1.623-.636-.435 0-.82.096-1.163.285a2.089 2.089 0 0 0-.812.8 2.339 2.339 0 0 0-.298 1.19l-1.593-.786c0-1.028.228-1.929.689-2.706a4.727 4.727 0 0 1 1.891-1.801c.803-.426 1.707-.637 2.716-.637.957 0 1.812.224 2.567.676a4.917 4.917 0 0 1 1.786 1.828c.434.768.649 1.599.649 2.504v8.416H95.89l.005.004Zm6.142 0V10h4.164v19.649h-4.164v-.005Zm8.434 0-4.568-6.817 4.541-6.335h4.621l-5.516 7.143.163-1.757 5.651 7.766h-4.892Z"/><path fill="#011813" d="M120.81 30a8.71 8.71 0 0 1-2.299-.312 8.54 8.54 0 0 1-2.08-.865 7.587 7.587 0 0 1-1.65-1.287l2.379-2.381c.451.47.969.835 1.553 1.094.583.263 1.237.39 1.961.39.452 0 .808-.07 1.067-.215.258-.145.39-.351.39-.623 0-.325-.154-.563-.461-.716a6.683 6.683 0 0 0-1.202-.435 40.675 40.675 0 0 1-1.553-.461 7.33 7.33 0 0 1-1.54-.69 3.431 3.431 0 0 1-1.19-1.19c-.307-.506-.46-1.165-.46-1.977 0-.813.215-1.582.649-2.205.434-.624 1.044-1.116 1.839-1.476.794-.36 1.737-.54 2.839-.54 1.101 0 2.128.193 3.08.58.957.386 1.72.961 2.299 1.717l-2.352 2.407c-.412-.488-.877-.835-1.391-1.041a4.007 4.007 0 0 0-1.5-.312c-.487 0-.821.07-1.053.215-.233.145-.351.334-.351.567 0 .272.157.488.473.65.316.163.711.308 1.19.435.478.127.987.277 1.527.448a6.516 6.516 0 0 1 1.54.73c.487.315.882.728 1.189 1.242.307.514.461 1.186.461 2.017 0 1.282-.483 2.306-1.448 3.07-.966.769-2.269 1.15-3.906 1.15V30Zm7.333-.356V10.54h4.269v19.11h-4.269v-.005Zm2.571-7.955v-3.707h10.649v3.707h-10.649Zm9.245 7.955V10.54h4.301v19.11h-4.301v-.005Zm12.9.299c-1.189 0-2.255-.255-3.203-.755-.948-.506-1.68-1.195-2.203-2.07-.522-.873-.785-1.88-.785-3.017v-7.604h4.164v7.551c0 .453.084.844.241 1.177.163.334.395.593.703.773.307.18.667.273 1.079.273.614 0 1.097-.198 1.448-.593.351-.396.527-.94.527-1.626v-7.55h4.164v7.603c0 1.155-.255 2.17-.773 3.044a5.412 5.412 0 0 1-2.15 2.056c-.917.497-1.992.743-3.216.743l.004-.005Zm8.106-.299V10h4.164v9.717l-.676 3.167.623 3.22v3.545h-4.107l-.004-.005Zm7.626.273c-.899 0-1.72-.185-2.462-.554a4.952 4.952 0 0 1-1.799-1.49 4.126 4.126 0 0 1-.798-2.094V20.23c.07-.796.342-1.494.812-2.096a4.654 4.654 0 0 1 1.812-1.405c.737-.334 1.549-.501 2.431-.501 1.224 0 2.321.299 3.286.892a6.409 6.409 0 0 1 2.286 2.433c.558 1.028.839 2.2.839 3.519 0 1.317-.277 2.486-.825 3.505a6.347 6.347 0 0 1-2.287 2.434c-.974.606-2.071.904-3.299.904h.004Zm-.759-3.76c.557 0 1.057-.132 1.501-.392a2.85 2.85 0 0 0 1.053-1.098c.259-.47.39-1.001.39-1.599 0-.597-.131-1.129-.39-1.594a2.923 2.923 0 0 0-1.053-1.098 2.922 2.922 0 0 0-1.501-.391 3.09 3.09 0 0 0-1.54.39 2.638 2.638 0 0 0-1.04 1.099c-.241.47-.364.992-.364 1.568 0 .615.127 1.16.377 1.638.255.48.601.844 1.04 1.094.443.255.952.378 1.527.378v.004Z"/><defs><linearGradient id="a" x1="19.996" x2="19.996" y1="31.92" y2="12.612" gradientUnits="userSpaceOnUse"><stop offset=".04" stop-color="#E4FFF8"/><stop offset=".14" stop-color="#E0FEF7" stop-opacity=".941"/><stop offset=".29" stop-color="#D6FEF4" stop-opacity=".774"/><stop offset=".49" stop-color="#C6FDEF" stop-opacity=".533"/><stop offset=".72" stop-color="#B0FDEA" stop-opacity=".281"/><stop offset=".76" stop-color="#ADFDE9" stop-opacity=".5"/></linearGradient></defs></svg>