<svg xmlns="http://www.w3.org/2000/svg" width="20" height="20" fill="none"><path fill="#011813" d="M17.98 5.04c-.6.26-1.22.44-1.88.52a3.2 3.2 0 0 0 1.44-1.82c-.64.38-1.34.64-2.08.8a3.282 3.282 0 0 0-5.68 2.24c0 .26.02.5.08.74C7.14 7.4 4.74 6.08 3.12 4.1c-1.16 2.08.14 3.8 1 4.38-.52 0-1.04-.16-1.48-.4 0 1.62 1.14 2.96 2.62 3.26-.32.1-1.04.16-1.48.06.42 1.3 1.64 2.26 3.06 2.28-1.12.88-2.76 1.58-4.86 1.36 1.46.94 3.18 1.48 5.04 1.48 6.04 0 9.32-5 9.32-9.32 0-.14 0-.28-.02-.42a6.51 6.51 0 0 0 1.66-1.74Z"/></svg>