<svg xmlns="http://www.w3.org/2000/svg" width="1440" height="471" fill="none"><g clip-path="url(#a)"><g filter="url(#b)"><ellipse cx="1509.27" cy="120.006" fill="url(#c)" rx="664.985" ry="673.184" transform="rotate(51.541 1509.27 120.006)"/></g><g filter="url(#d)"><ellipse cx="1236.06" cy="734.674" fill="#FD9AC0" rx="449.681" ry="454.849" transform="rotate(-180 1236.06 734.674)"/></g><g filter="url(#e)"><ellipse cx="1447.08" cy="830.207" fill="#FFC1DF" rx="367.337" ry="371.793" transform="rotate(-180 1447.08 830.207)"/></g><g filter="url(#f)"><path fill="#fff" fill-opacity=".85" d="M658.631-182.534c-140.408 350.319 81.426 781.6 716.509 900.73C785.871 477.794 779.624 79.288 834.368-217.696l-175.737 35.162Z"/></g><g filter="url(#g)"><path fill="#fff" fill-opacity=".85" d="M516.566-17.432c-154.96 216.142-75.629 548.566 338.966 736.821C492.67 455.841 555.366 182.077 642.739-11.961l-126.173-5.471Z"/></g><g filter="url(#h)"><path fill="url(#i)" fill-opacity=".7" d="M993.121-167.495c-107.89 279.476 72.559 619.538 577.839 707.65-470.15-184.832-479.15-501.067-438.71-737.34l-139.129 29.69Z"/></g><g filter="url(#j)"><path fill="#fff" fill-opacity=".8" d="M1209.51-208.957c-44.22 296.296 206.17 588.716 718.5 564.299-499.18-77.643-82.48-476.132-94.64-715.532l-623.86 151.233Z"/></g><g filter="url(#k)"><ellipse cx="664.985" cy="673.184" fill="url(#l)" rx="664.985" ry="673.184" transform="scale(-1 1) rotate(51.541 977.526 -142.682)"/></g><g filter="url(#m)"><ellipse cx="449.681" cy="454.849" fill="#39EDC1" rx="449.681" ry="454.849" transform="matrix(1 0 0 -1 -320.738 1189.52)"/></g><g filter="url(#n)"><ellipse cx="367.337" cy="371.793" fill="#FFC1DF" rx="367.337" ry="371.793" transform="matrix(1 0 0 -1 -449.422 1202)"/></g><g filter="url(#o)"><path fill="#fff" fill-opacity=".85" d="M706.369-182.534c140.408 350.319-81.426 781.6-716.512 900.73C579.13 477.794 585.376 79.288 530.632-217.696l175.737 35.162Z"/></g><g filter="url(#p)"><path fill="#fff" fill-opacity=".85" d="M848.434-17.432c154.956 216.142 75.629 548.566-338.966 736.821C872.33 455.841 809.634 182.077 722.261-11.961l126.173-5.471Z"/></g><g filter="url(#q)"><path fill="url(#r)" fill-opacity=".7" d="M371.883-167.495c107.89 279.476-72.557 619.538-577.839 707.65 470.149-184.832 479.15-501.067 438.712-737.34l139.127 29.69Z"/></g><g filter="url(#s)"><path fill="#fff" fill-opacity=".8" d="M155.483-208.957C199.703 87.339-50.685 379.759-563.01 355.342c499.174-77.643 82.476-476.132 94.639-715.532l623.854 151.233Z"/></g></g><defs><filter id="b" width="2053.04" height="2049.31" x="482.754" y="-904.652" color-interpolation-filters="sRGB" filterUnits="userSpaceOnUse"><feFlood flood-opacity="0" result="BackgroundImageFix"/><feBlend in="SourceGraphic" in2="BackgroundImageFix" result="shape"/><feGaussianBlur result="effect1_foregroundBlur_4040_1464" stdDeviation="178.232"/></filter><filter id="d" width="1612.29" height="1622.63" x="429.912" y="-76.64" color-interpolation-filters="sRGB" filterUnits="userSpaceOnUse"><feFlood flood-opacity="0" result="BackgroundImageFix"/><feBlend in="SourceGraphic" in2="BackgroundImageFix" result="shape"/><feGaussianBlur result="effect1_foregroundBlur_4040_1464" stdDeviation="178.232"/></filter><filter id="e" width="1447.6" height="1456.52" x="723.283" y="101.949" color-interpolation-filters="sRGB" filterUnits="userSpaceOnUse"><feFlood flood-opacity="0" result="BackgroundImageFix"/><feBlend in="SourceGraphic" in2="BackgroundImageFix" result="shape"/><feGaussianBlur result="effect1_foregroundBlur_4040_1464" stdDeviation="178.232"/></filter><filter id="f" width="1113.43" height="1292.36" x="439.945" y="-395.928" color-interpolation-filters="sRGB" filterUnits="userSpaceOnUse"><feFlood flood-opacity="0" result="BackgroundImageFix"/><feBlend in="SourceGraphic" in2="BackgroundImageFix" result="shape"/><feGaussianBlur result="effect1_foregroundBlur_4040_1464" stdDeviation="89.116"/></filter><filter id="g" width="768.988" height="1093.29" x="264.775" y="-195.665" color-interpolation-filters="sRGB" filterUnits="userSpaceOnUse"><feFlood flood-opacity="0" result="BackgroundImageFix"/><feBlend in="SourceGraphic" in2="BackgroundImageFix" result="shape"/><feGaussianBlur result="effect1_foregroundBlur_4040_1464" stdDeviation="89.116"/></filter><filter id="h" width="857.407" height="986.866" x="838.315" y="-321.948" color-interpolation-filters="sRGB" filterUnits="userSpaceOnUse"><feFlood flood-opacity="0" result="BackgroundImageFix"/><feBlend in="SourceGraphic" in2="BackgroundImageFix" result="shape"/><feGaussianBlur result="effect1_foregroundBlur_4040_1464" stdDeviation="62.381"/></filter><filter id="j" width="1151.24" height="1144.72" x="990.641" y="-574.069" color-interpolation-filters="sRGB" filterUnits="userSpaceOnUse"><feFlood flood-opacity="0" result="BackgroundImageFix"/><feBlend in="SourceGraphic" in2="BackgroundImageFix" result="shape"/><feGaussianBlur result="effect1_foregroundBlur_4040_1464" stdDeviation="106.94"/></filter><filter id="k" width="2053.04" height="2049.31" x="-1170.79" y="-904.652" color-interpolation-filters="sRGB" filterUnits="userSpaceOnUse"><feFlood flood-opacity="0" result="BackgroundImageFix"/><feBlend in="SourceGraphic" in2="BackgroundImageFix" result="shape"/><feGaussianBlur result="effect1_foregroundBlur_4040_1464" stdDeviation="178.232"/></filter><filter id="m" width="1612.29" height="1622.63" x="-677.203" y="-76.64" color-interpolation-filters="sRGB" filterUnits="userSpaceOnUse"><feFlood flood-opacity="0" result="BackgroundImageFix"/><feBlend in="SourceGraphic" in2="BackgroundImageFix" result="shape"/><feGaussianBlur result="effect1_foregroundBlur_4040_1464" stdDeviation="178.232"/></filter><filter id="n" width="1447.6" height="1456.52" x="-805.887" y="101.949" color-interpolation-filters="sRGB" filterUnits="userSpaceOnUse"><feFlood flood-opacity="0" result="BackgroundImageFix"/><feBlend in="SourceGraphic" in2="BackgroundImageFix" result="shape"/><feGaussianBlur result="effect1_foregroundBlur_4040_1464" stdDeviation="178.232"/></filter><filter id="o" width="1113.43" height="1292.36" x="-188.375" y="-395.928" color-interpolation-filters="sRGB" filterUnits="userSpaceOnUse"><feFlood flood-opacity="0" result="BackgroundImageFix"/><feBlend in="SourceGraphic" in2="BackgroundImageFix" result="shape"/><feGaussianBlur result="effect1_foregroundBlur_4040_1464" stdDeviation="89.116"/></filter><filter id="p" width="768.988" height="1093.29" x="331.236" y="-195.665" color-interpolation-filters="sRGB" filterUnits="userSpaceOnUse"><feFlood flood-opacity="0" result="BackgroundImageFix"/><feBlend in="SourceGraphic" in2="BackgroundImageFix" result="shape"/><feGaussianBlur result="effect1_foregroundBlur_4040_1464" stdDeviation="89.116"/></filter><filter id="q" width="857.407" height="986.866" x="-330.719" y="-321.948" color-interpolation-filters="sRGB" filterUnits="userSpaceOnUse"><feFlood flood-opacity="0" result="BackgroundImageFix"/><feBlend in="SourceGraphic" in2="BackgroundImageFix" result="shape"/><feGaussianBlur result="effect1_foregroundBlur_4040_1464" stdDeviation="62.381"/></filter><filter id="s" width="1151.24" height="1144.72" x="-776.889" y="-574.069" color-interpolation-filters="sRGB" filterUnits="userSpaceOnUse"><feFlood flood-opacity="0" result="BackgroundImageFix"/><feBlend in="SourceGraphic" in2="BackgroundImageFix" result="shape"/><feGaussianBlur result="effect1_foregroundBlur_4040_1464" stdDeviation="106.94"/></filter><linearGradient id="c" x1="1335.14" x2="1509.27" y1="467.916" y2="793.19" gradientUnits="userSpaceOnUse"><stop stop-color="#fff"/><stop offset="1" stop-color="#391DE8"/></linearGradient><linearGradient id="i" x1="1063.17" x2="1975.44" y1="56.415" y2="908.301" gradientUnits="userSpaceOnUse"><stop stop-color="#fff"/><stop offset="1" stop-color="#fff" stop-opacity="0"/></linearGradient><linearGradient id="l" x1="490.852" x2="664.985" y1="1021.09" y2="1346.37" gradientUnits="userSpaceOnUse"><stop stop-color="#fff"/><stop offset="1" stop-color="#391DE8"/></linearGradient><linearGradient id="r" x1="301.833" x2="-610.436" y1="56.415" y2="908.301" gradientUnits="userSpaceOnUse"><stop stop-color="#fff"/><stop offset="1" stop-color="#fff" stop-opacity="0"/></linearGradient><clipPath id="a"><path fill="#fff" d="M0 471h1440V0H0z"/></clipPath></defs></svg>