<svg xmlns="http://www.w3.org/2000/svg" width="20" height="20" fill="none"><path fill="#fff" d="M14.45 4.55a1 1 0 1 0 0 2 1 1 0 0 0 0-2Zm3.833 2.016a6.326 6.326 0 0 0-.383-2.024 4.117 4.117 0 0 0-.967-1.475 3.917 3.917 0 0 0-1.475-.959 6.083 6.083 0 0 0-2.025-.392c-.883-.05-1.166-.05-3.433-.05s-2.55 0-3.433.05a6.083 6.083 0 0 0-2.025.392 3.983 3.983 0 0 0-1.475.958 3.917 3.917 0 0 0-.959 1.476 6.083 6.083 0 0 0-.391 2.024c-.05.884-.05 1.167-.05 3.434 0 2.267 0 2.55.05 3.433.014.693.146 1.377.391 2.025.204.558.531 1.062.959 1.475.414.425.918.753 1.475.959a6.084 6.084 0 0 0 2.025.391c.883.05 1.166.05 3.433.05s2.55 0 3.433-.05a6.084 6.084 0 0 0 2.025-.392 3.918 3.918 0 0 0 1.475-.958c.427-.414.757-.918.967-1.475.238-.65.367-1.333.383-2.025 0-.883.05-1.166.05-3.433s0-2.55-.05-3.434Zm-1.5 6.767a4.678 4.678 0 0 1-.283 1.55 2.56 2.56 0 0 1-.625.959c-.27.275-.597.488-.958.624a4.672 4.672 0 0 1-1.55.284c-.834.041-1.142.05-3.334.05-2.191 0-2.5 0-3.333-.05a4.775 4.775 0 0 1-1.617-.25 2.724 2.724 0 0 1-.916-.625 2.5 2.5 0 0 1-.617-.959 4.616 4.616 0 0 1-.333-1.583c0-.833-.05-1.142-.05-3.333 0-2.192 0-2.5.05-3.333a4.608 4.608 0 0 1 .291-1.584 2.5 2.5 0 0 1 .659-.917c.253-.286.566-.514.916-.666a4.775 4.775 0 0 1 1.584-.284c.833 0 1.141-.05 3.333-.05s2.5 0 3.333.05a4.675 4.675 0 0 1 1.55.284c.379.14.719.369.992.667.273.255.486.568.625.916.185.508.281 1.043.283 1.583.042.834.05 1.142.05 3.334 0 2.191-.008 2.5-.05 3.333ZM10 5.725A4.275 4.275 0 1 0 14.283 10 4.266 4.266 0 0 0 10 5.725Zm0 7.05a2.775 2.775 0 1 1 0-5.55 2.775 2.775 0 0 1 0 5.55Z"/></svg>